<svg width="26" height="20" viewBox="0 0 26 20" fill="none" xmlns="http://www.w3.org/2000/svg">
<path d="M0 11.3524C0 16.5336 3.50947 20 9.29276 20H11.9866C14.8412 20 16.4971 18.6649 16.5341 16.3867C17.4363 16.1049 17.9924 15.37 17.9924 14.3411C17.9924 13.9981 17.9182 13.6429 17.807 13.2754C18.7956 12.957 19.4135 12.1486 19.4135 11.0829C19.4135 10.8012 19.3763 10.5073 19.2775 10.2133H23.3925C24.9619 10.2133 26 9.18439 26 7.73905C26 6.28144 24.9619 5.25257 23.3925 5.25257H13.0865C13.0247 5.25257 12.9752 5.21578 12.9752 5.15458C12.9752 5.10556 13.0123 5.06882 13.0617 5.05654L15.0389 4.23594C16.3241 3.69697 16.8184 2.59457 16.3859 1.4432C15.9039 0.157107 14.6435 -0.320613 13.0988 0.218304L6.98188 2.37408C2.34789 4.00316 0 7.02862 0 11.3524ZM1.70528 11.4136C1.70528 7.984 3.29936 5.36279 7.51324 3.86843L13.6178 1.70043C14.2604 1.46771 14.73 1.63918 14.9277 2.12913C15.1007 2.59457 14.8289 3.02327 14.2975 3.25599L10.5408 4.92181C9.92298 5.19132 9.72526 5.571 9.72526 5.9997C9.72526 6.51416 10.133 6.88161 10.7015 6.88161H23.5036C24.0351 6.88161 24.4059 7.23688 24.4059 7.73905C24.4059 8.24123 24.0351 8.58417 23.5036 8.58417H14.3592C13.9267 8.58417 13.6054 8.95167 13.6054 9.38037C13.6054 9.79684 13.9267 10.1398 14.3592 10.1398H17.6463C17.7575 10.348 17.8193 10.6297 17.8193 10.8747C17.8193 11.4871 17.4115 11.8546 16.7689 11.8546H13.8897C13.4324 11.8546 13.1359 12.2221 13.1359 12.6385C13.1359 13.0427 13.4324 13.4102 13.8897 13.4102H16.2252C16.3364 13.6184 16.3982 13.9002 16.3982 14.1328C16.3982 14.7575 15.9904 15.1127 15.3478 15.1127H13.4201C12.9629 15.1127 12.6539 15.4925 12.6539 15.9089C12.6539 16.3131 12.9629 16.6683 13.4201 16.6683H14.8412C14.8412 17.7585 13.7043 18.3832 11.7395 18.3832H9.49042C4.52279 18.3832 1.70528 15.7375 1.70528 11.4136Z" fill="white"/>
</svg>
